Patient4_TMGait_0pt2_03_left_11_GRF.mot
version=1
nRows=38
nColumns=19
inDegrees=no
endheader
time	F1x	F1y	F1z	M1x	M1y	M1z	F2x	F2y	F2z	M2x	M2y	M2z	EC1x	EC1y	EC1z	EC2x	EC2y	EC2z
22.3	-1.1745	1.0827	0.5624	-0.37359	-1.5658	0.19086	-2.8835	750.9566	-42.2076	248.4132	48.4172	739.3172	-0.0592	0.0182	-0.0073	-0.0462	0.0165	0.9585
22.3219	-1.0285	0.90417	0.35779	-0.31614	-1.1157	0.23614	-3.8747	757.323	-44.0319	250.5527	49.7942	744.5282	-0.0592	0.0182	-0.0073	-0.0462	0.0165	0.9585
22.3439	-0.90294	0.73424	0.18197	-0.26523	-0.73071	0.25623	-5.0564	768.4624	-45.9353	254.25	51.2665	754.209	-0.0592	0.0182	-0.0073	-0.0462	0.0165	0.9585
22.3658	-0.80814	0.5943	0.050876	-0.22789	-0.43843	0.2614	-6.3663	784.9591	-47.7725	259.708	52.7028	768.9297	-0.0592	0.0182	-0.0073	-0.0462	0.0165	0.9585
22.3877	-0.74254	0.49955	-0.032386	-0.20732	-0.24015	0.26282	-7.6789	806.2147	-49.39	266.7481	53.9279	788.0842	-0.0592	0.0182	-0.0073	-0.0462	0.0165	0.9585
22.4096	-0.69954	0.45318	-0.0736	-0.20284	-0.12292	0.27143	-8.8435	830.2213	-50.6311	274.7201	54.7405	809.6949	-0.0592	0.0182	-0.0073	-0.0462	0.0165	0.9585
22.4316	-0.67248	0.4461	-0.083091	-0.2119	-0.068108	0.29053	-9.7341	853.8525	-51.376	282.5878	54.9743	830.7264	-0.0592	0.0182	-0.0073	-0.0462	0.0165	0.9585
22.4535	-0.65787	0.46799	-0.0731	-0.23066	-0.05618	0.31732	-10.3004	873.5856	-51.5606	289.1665	54.5431	847.8267	-0.0592	0.0182	-0.0073	-0.0462	0.0165	0.9585
22.4754	-0.65694	0.49927	-0.054736	-0.25138	-0.069342	0.33664	-10.5623	886.3773	-51.1765	293.4198	53.4469	858.169	-0.0592	0.0182	-0.0073	-0.0462	0.0165	0.9585
22.4974	-0.67098	0.50927	-0.034099	-0.26486	-0.094777	0.32254	-10.5676	890.3821	-50.2594	294.7072	51.7455	860.1046	-0.0592	0.0182	-0.0073	-0.0462	0.0165	0.9585
22.5193	-0.69805	0.4597	-0.01486	-0.26017	-0.12192	0.24076	-10.3606	885.2403	-48.8882	292.8876	49.547	853.4059	-0.0592	0.0182	-0.0073	-0.0462	0.0165	0.9585
22.5412	-0.73472	0.30909	-0.00043245	-0.22294	-0.14329	0.049943	-9.9857	871.9323	-47.1931	288.2745	47.0159	839.0963	-0.0592	0.0182	-0.0073	-0.0462	0.0165	0.9585
22.5631	-0.77273	0.015425	0.0068811	-0.13469	-0.15383	-0.29339	-9.4877	852.3174	-45.3476	281.4861	44.3645	818.9923	-0.0592	0.0182	-0.0073	-0.0462	0.0165	0.9585
22.5851	-0.7991	-0.46393	0.0068699	0.024652	-0.15051	-0.83628	-8.8828	828.6267	-43.5379	273.2792	41.8071	795.1919	-0.0592	0.0182	-0.0073	-0.0462	0.0165	0.9585
22.607	-0.79624	-1.164	0.0013617	0.27045	-0.13066	-1.6111	-8.1197	803.1312	-41.9185	264.4386	39.5021	769.7443	-0.0592	0.0182	-0.0073	-0.0462	0.0165	0.9585
22.6289	-0.73662	-2.0904	-0.0060117	0.60726	-0.090334	-2.6136	-7.0897	777.9477	-40.5867	255.7079	37.5249	744.4853	-0.0592	0.0182	-0.0073	-0.0462	0.0165	0.9585
22.6509	-0.58294	-3.1899	-0.0096251	1.0186	-0.026514	-3.7677	-5.6639	754.9195	-39.5845	247.7423	35.8803	720.957	-0.0592	0.0182	-0.0073	-0.0462	0.0165	0.9585
22.6728	-0.29763	-4.3137	-0.0052596	1.4555	0.061125	-4.8912	-3.722	735.5484	-38.9254	241.0785	34.5313	700.3822	-0.0592	0.0182	-0.0073	-0.0462	0.0165	0.9585
22.6947	0.14773	-5.181	0.011858	1.824	0.16908	-5.6639	-1.1761	720.8995	-38.6213	236.0953	33.4331	683.6154	-0.0592	0.0182	-0.0073	-0.0462	0.0165	0.9585
22.7166	0.76015	-5.3428	0.048362	1.9691	0.28744	-5.5794	2.0002	711.5033	-38.7011	232.9777	32.5658	671.0905	-0.0592	0.0182	-0.0073	-0.0462	0.0165	0.9585
22.7386	1.5151	-4.1557	0.11138	1.6599	0.39779	-3.9044	5.7271	707.2133	-39.2074	231.6705	31.9525	662.7105	-0.0592	0.0182	-0.0073	-0.0462	0.0165	0.9585
22.7605	2.3345	-0.77848	0.209	0.58599	0.46554	0.30204	9.8106	707.1371	-40.1642	231.8603	31.6351	657.792	-0.0592	0.0182	-0.0073	-0.0462	0.0165	0.9585
22.7824	3.0563	5.7852	0.34697	-1.6284	0.43503	8.1163	13.9622	709.7018	-41.5349	233.0026	31.6398	655.109	-0.0592	0.0182	-0.0073	-0.0462	0.0165	0.9585
22.8044	3.4155	16.5672	0.52507	-5.3852	0.22756	20.6019	17.8116	712.7706	-43.1856	234.3654	31.9455	652.9835	-0.0592	0.0182	-0.0073	-0.0462	0.0165	0.9585
22.8263	3.1459	32.5419	0.80748	-11.0743	-0.31225	38.7098	20.9502	713.8442	-44.8862	235.1001	32.4718	649.4433	-0.0592	0.0182	-0.0073	-0.0462	0.0165	0.9585
22.8482	2.1064	54.4518	1.3545	-19.0032	-1.4071	63.0879	23.0159	710.4177	-46.3328	234.3612	33.0749	642.49	-0.0592	0.0182	-0.0073	-0.0462	0.0165	0.9585
22.8701	0.43232	82.5562	2.3332	-29.2979	-3.1818	93.8171	23.7675	700.3885	-47.187	231.4412	33.5562	630.4221	-0.0592	0.0182	-0.0073	-0.0462	0.0165	0.9585
22.8921	-1.5452	116.5123	3.9548	-41.8457	-5.73	130.3272	23.1293	682.4037	-47.1358	225.886	33.6938	612.117	-0.0592	0.0182	-0.0073	-0.0462	0.0165	0.9585
22.914	-3.5493	155.0774	6.4916	-56.1757	-9.2273	171.1522	21.2049	656.0297	-45.9575	217.5522	33.2868	587.1742	-0.0592	0.0182	-0.0073	-0.0462	0.0165	0.9585
22.9359	-5.3774	195.7597	10.0566	-71.3458	-13.6986	213.578	18.265	621.8852	-43.5844	206.6466	32.2106	556.0411	-0.0592	0.0182	-0.0073	-0.0462	0.0165	0.9585
22.9579	-6.7954	236.0923	14.2969	-86.4407	-18.6638	254.9773	14.7363	581.8113	-40.1619	193.7755	30.4692	520.1782	-0.0592	0.0182	-0.0073	-0.0462	0.0165	0.9585
22.9798	-7.7039	275.2024	18.5983	-101.1421	-23.4282	294.4909	11.1097	538.6289	-36.0274	179.8631	28.2026	481.8831	-0.0592	0.0182	-0.0073	-0.0462	0.0165	0.9585
23.0017	-8.1374	313.0024	22.477	-115.4148	-27.4972	332.1452	7.7748	495.3044	-31.57	165.8811	25.6146	443.6075	-0.0592	0.0182	-0.0073	-0.0462	0.0165	0.9585
23.0236	-8.1651	349.1964	25.7341	-129.1315	-30.6982	367.746	4.942	454.1944	-27.1638	152.5988	22.9454	407.3191	-0.0592	0.0182	-0.0073	-0.0462	0.0165	0.9585
23.0456	-7.8324	383.1487	28.3729	-142.0282	-33.0696	400.7105	2.6784	416.7121	-23.1716	140.4685	20.4644	374.1923	-0.0592	0.0182	-0.0073	-0.0462	0.0165	0.9585
23.0675	-7.2025	414.1876	30.461	-153.8296	-34.7254	430.4003	0.98441	383.3169	-19.88	129.6242	18.3937	344.5936	-0.0592	0.0182	-0.0073	-0.0462	0.0165	0.9585
23.0894	-6.4013	441.9916	32.0712	-164.398	-35.8068	456.5373	-0.14762	353.632	-17.4072	119.9263	16.8167	318.1772	-0.0592	0.0182	-0.0073	-0.0462	0.0165	0.9585
23.1114	-5.5833	466.9065	33.2853	-173.8473	-36.4741	479.5294	-0.69366	326.6855	-15.6921	111.0469	15.658	294.0884	-0.0592	0.0182	-0.0073	-0.0462	0.0165	0.9585
